{"title":"Butterfly.Effect.(2004)_(Dutchsubs-EXT)[h33t]-2lions+WaRlOrD","uid":4992093,"size":734460536,"categoryP":"video","categoryS":"movies","magnet":"?xt=urn:btih:5d9ef5294fdaf3e87fb0751e6c5dbc1a72828287&amp;dn=Butterfly.Effect.%282004%29_%28Dutchsubs-EXT%29%5Bh33t%5D-2lions%2BWaRlOrD&amp;tr=udp%3A%2F%2Ftracker.openbittorrent.com%3A80&amp;tr=udp%3A%2F%2Fopen.demonii.com%3A1337&amp;tr=udp%3A%2F%2Ftracker.coppersurfer.tk%3A6969&amp;tr=udp%3A%2F%2Fexodus.desync.com%3A6969","seeders":1,"leechers":0,"uploader":"bitpirate","files":-1,"time":1247096226,"description":"WaRlOrD presents: Butterfly effect\n----------------------------------\n\nVerenigde Staten\nScience-Fiction / Thriller\n113 minuten / 120 minuten (Director's Cut)\n\ngeregisseerd door Eric Bress en J. Mackye Gruber\nmet Ashton Kutcher, Amy Smart en Kevin Schmidt\n\nDe twintigjarige student Evan Treborn (Ashton Kutcher) beschikt over een unieke maar levensgevaarlijke gave. Hij is in staat terug te keren naar zijn verleden. Voor Evan, die geplaagd wordt door schuldgevoelens, lijkt het de ideale manier om de levens van zijn vrienden - en vooral dat van z'n ex-liefje Kayleigh - weer op de rails te krijgen. Maar Evan houdt geen rekening met het zogenaamde 'butterfly-effect', de ijzeren wet die bepaalt dat de allerkleinste wijziging in het verleden een enorme weerslag heeft op de toekomst. Al snel verliest hij de controle over zijn gave. De gevolgen zijn niet te overzien...\n &lt;a href=&quot;\nhttp://moviemeter.nl/film/12109&quot; rel=&quot;nofollow&quot; target=&quot;_NEW&quot;&gt;\nhttp://moviemeter.nl/film/12109&lt;/a&gt;\n\n--------------------------------\n\nEvan Treborn grows up in a small town with his single, working mother and his friends. He suffers from memory blackouts where he suddenly finds himself somewhere else, confused. Evan's friends and mother hardly believe him, thinking he makes it up just to get out of trouble. As Evan grows up he has less of these blackouts until he seems to have recovered. Since the age of seven he has written a diary of his blackout moments so he can remember what happens. One day at college he starts to read one of his old diaries, and suddenly a flashback hits him like a brick!\n &lt;a href=&quot;\nhttp://www.imdb.com/title/tt0289879/&quot; rel=&quot;nofollow&quot; target=&quot;_NEW&quot;&gt;\nhttp://www.imdb.com/title/tt0289879/&lt;/a&gt;\n\nFormat                           : AVI\nFormat/Info                      : Audio Video Interleave\nFile size                        : 700 MiB\nDuration                         : 1h 49mn\nOverall bit rate                 : 898 Kbps\nWriting application              : Nandub v1.0rc2\nWriting library                  : Nandub build 1852/release\n\nVideo\nID                               : 0\nFormat                           : MPEG-4 Visual\nFormat profile                   : Simple@L3\nFormat settings, BVOP            : No\nFormat settings, QPel            : No\nFormat settings, GMC             : No warppoints\nFormat settings, Matrix          : Default (H.263)\nCodec ID                         : XVID\nCodec ID/Hint                    : XviD\nDuration                         : 1h 49mn\nBit rate                         : 769 Kbps\nWidth                            : 576 pixels\nHeight                           : 320 pixels\nDisplay aspect ratio             : 16/9\nFrame rate                       : 25.000 fps\nResolution                       : 24 bits\nColorimetry                      : 4:2:0\nScan type                        : Progressive\nBits/(Pixel*Frame)               : 0.167\nStream size                      : 600 MiB (86%)\nWriting library                  : XviD 0.0.09 (UTC 2003-03-25)\n\nAudio\nID                               : 1\nFormat                           : MPEG Audio\nFormat version                   : Version 1\nFormat profile                   : Layer 3\nCodec ID                         : 55\nCodec ID/Hint                    : MP3\nDuration                         : 1h 49mn\nBit rate mode                    : Variable\nBit rate                         : 116 Kbps\nNominal bit rate                 : 128 Kbps\nChannel(s)                       : 2 channels\nSampling rate                    : 48.0 KHz\nResolution                       : 16 bits\nStream size                      : 90.5 MiB (13%)\nAlignment                        : Aligned on interleaves\nInterleave, duration             : 24 ms (0.60 video frame)\nInterleave, preload duration     : 152 ms\nWriting library                  : LAME3.90.\nEncoding settings                : -m j -V 0 -q 5 -lowpass 15.3 --abr 128\n\n******************************************\n\nBrought to you by\n\nWaRlOrD\nAND\n2Lions Team\n\nmeer zien??\nKom dan eens kijken op ons forum &lt;a href=&quot;\nhttp://www.2lions.ons-forum.nl&quot; rel=&quot;nofollow&quot; target=&quot;_NEW&quot;&gt;\nhttp://www.2lions.ons-forum.nl&lt;/a&gt;\n\n******************************************\nYou need this reseed? send me a pm @ piratebay forum","torrent":{"xt":"urn:btih:5d9ef5294fdaf3e87fb0751e6c5dbc1a72828287","amp;dn":"Butterfly.Effect.%282004%29_%28Dutchsubs-EXT%29%5Bh33t%5D-2lions%2BWaRlOrD","amp;tr":["udp%3A%2F%2Ftracker.openbittorrent.com%3A80","udp%3A%2F%2Fopen.demonii.com%3A1337","udp%3A%2F%2Ftracker.coppersurfer.tk%3A6969","udp%3A%2F%2Fexodus.desync.com%3A6969"],"infoHash":"5d9ef5294fdaf3e87fb0751e6c5dbc1a72828287","infoHashBuffer":{"type":"Buffer","data":[93,158,245,41,79,218,243,232,127,176,117,30,108,93,188,26,114,130,130,135]},"announce":[],"urlList":[]}}